<svg width="24" height="24" viewBox="0 0 24 24" fill="none" xmlns="http://www.w3.org/2000/svg">
  <circle cx="12" cy="12" r="10" fill="#2775CA"/>
  <path d="M12.9166 15.4583C12.9166 14.9375 12.5208 14.625 11.8333 14.5417V16.375C12.5208 16.2917 12.9166 15.9792 12.9166 15.4583Z" fill="white"/>
  <path d="M11.0833 8.54167C11.0833 9.04167 11.4375 9.33333 12.0833 9.41667V7.625C11.4375 7.70833 11.0833 8.04167 11.0833 8.54167Z" fill="white"/>
  <path d="M16.5 12C16.5 14.4853 14.4853 16.5 12 16.5C9.51472 16.5 7.5 14.4853 7.5 12C7.5 9.51472 9.51472 7.5 12 7.5C14.4853 7.5 16.5 9.51472 16.5 12ZM10.0417 8.54167C10.0417 7.5 10.7917 6.875 12.0833 6.75V5.75H12.9166V6.75C14.2083 6.875 14.9583 7.5 15 8.625H13.9583C13.9167 8.04167 13.5833 7.70833 12.9166 7.625V9.5H13C14.375 9.625 15.125 10.2083 15.125 11.375C15.125 12.5 14.3333 13.1667 12.9166 13.2917V14.2917H12.0833V13.2917C10.7083 13.1667 9.95833 12.5417 9.91667 11.375H10.9583C11 11.9583 11.375 12.3333 12.0833 12.4167V10.5H12C10.6667 10.375 10.0417 9.75 10.0417 8.54167Z" fill="white"/>
</svg>
